<svg width="512" height="512" viewBox="0 0 512 512" xmlns="http://www.w3.org/2000/svg" role="img" aria-label="ZeroRIR icon">
  <defs>
    <linearGradient id="g" x1="0" y1="0" x2="1" y2="1">
      <stop offset="0%" stop-color="#bef264" />
      <stop offset="100%" stop-color="#84cc16" />
    </linearGradient>
  </defs>
  <rect x="0" y="0" width="512" height="512" rx="96" fill="#07090d" />
  <rect x="96" y="112" width="320" height="54" rx="20" fill="url(#g)" />
  <rect x="96" y="346" width="320" height="54" rx="20" fill="url(#g)" />
  <rect x="136" y="176" width="240" height="160" rx="42" fill="#131821" stroke="#28303b" stroke-width="14" />
  <path d="M184 286V226h62c35 0 57 16 57 44 0 11-4 21-11 29-11 12-25 17-47 17h-61zm46-24h15c8 0 14-1 19-5 4-3 7-8 7-14 0-7-2-11-7-14-4-3-9-4-18-4h-16v37z" fill="#e2e8f0" />
</svg>
